<?xml version="1.0" encoding="UTF-8"?>
<svg id="Layer_1" xmlns="http://www.w3.org/2000/svg" version="1.1" viewBox="0 0 864 576">
  <!-- Generator: Adobe Illustrator 29.4.0, SVG Export Plug-In . SVG Version: 2.1.0 Build 152)  -->
  <defs>
    <style>
      .st0, .st1, .st2, .st3, .st4 {
        fill: none;
      }

      .st5 {
        fill: #003287;
      }

      .st5, .st6 {
        fill-opacity: .6;
      }

      .st7 {
        font-size: 14px;
      }

      .st7, .st8, .st9 {
        font-family: Times-Roman, Times;
      }

      .st8, .st9 {
        font-size: 12px;
      }

      .st10 {
        letter-spacing: .29em;
      }

      .st1 {
        stroke: #000;
        stroke-width: 1.49px;
      }

      .st1, .st2, .st4 {
        stroke-linejoin: round;
      }

      .st11 {
        letter-spacing: .22em;
      }

      .st12 {
        letter-spacing: .16em;
      }

      .st2 {
        stroke: #f2f2f2;
        stroke-width: .53px;
      }

      .st3 {
        stroke: #141212;
        stroke-miterlimit: 10;
      }

      .st13 {
        fill: #141212;
      }

      .st9 {
        fill: #4d4d4d;
        isolation: isolate;
      }

      .st4 {
        stroke: #e5e5e5;
        stroke-width: 1.07px;
      }

      .st6 {
        fill: #82c1ff;
      }
    </style>
  </defs>
  <rect class="st0" width="864" height="576"/>
  <rect class="st0" width="864" height="576"/>
  <rect class="st0" x="62.63" y="39.93" width="705.72" height="492.91"/>
  <line class="st2" x1="62.63" y1="492.59" x2="768.35" y2="492.59"/>
  <line class="st2" x1="62.63" y1="412.09" x2="768.35" y2="412.09"/>
  <line class="st2" x1="62.63" y1="331.6" x2="768.35" y2="331.6"/>
  <line class="st2" x1="62.63" y1="251.1" x2="768.35" y2="251.1"/>
  <line class="st2" x1="62.63" y1="170.61" x2="768.35" y2="170.61"/>
  <line class="st2" x1="62.63" y1="90.11" x2="768.35" y2="90.11"/>
  <line class="st2" x1="95" y1="532.84" x2="95" y2="39.93"/>
  <line class="st2" x1="307.06" y1="532.84" x2="307.06" y2="39.93"/>
  <line class="st2" x1="519.13" y1="532.84" x2="519.13" y2="39.93"/>
  <line class="st2" x1="731.2" y1="532.84" x2="731.2" y2="39.93"/>
  <line class="st4" x1="62.63" y1="452.34" x2="768.35" y2="452.34"/>
  <line class="st4" x1="62.63" y1="371.85" x2="768.35" y2="371.85"/>
  <line class="st4" x1="62.63" y1="291.35" x2="768.35" y2="291.35"/>
  <line class="st4" x1="62.63" y1="210.85" x2="768.35" y2="210.85"/>
  <line class="st4" x1="62.63" y1="130.36" x2="768.35" y2="130.36"/>
  <line class="st4" x1="62.63" y1="49.86" x2="768.35" y2="49.86"/>
  <line class="st4" x1="200.96" y1="532.84" x2="200.96" y2="39.93"/>
  <line class="st4" x1="413.17" y1="532.84" x2="413.17" y2="39.93"/>
  <line class="st4" x1="625.09" y1="532.84" x2="625.09" y2="39.93"/>
  <polygon class="st6" points="95 161.82 95.29 162.14 111.84 180.13 112.13 180.45 112.42 182.7 115.03 202.96 115.32 205.21 115.61 204.54 140.28 147.94 140.58 147.27 140.87 148.21 153.64 189.62 153.93 190.56 154.22 190.42 171.93 181.64 172.22 181.49 172.51 181.28 196.31 163.66 196.6 163.45 196.89 163.82 212.57 183.82 212.86 184.19 213.15 183.91 247.12 151.31 247.41 151.03 247.7 151.95 260.18 191.22 260.47 192.14 260.76 194.33 262.21 205.31 262.5 207.51 262.79 207.19 275.57 193.33 275.86 193.01 276.15 192.03 313.01 66.62 313.31 65.63 313.6 70.92 320.27 192.75 320.56 198.04 320.85 197.49 347.56 146.09 347.85 145.53 348.14 148.77 352.79 200.51 353.08 203.75 353.37 203.26 383.27 152.55 383.56 152.06 383.85 153.5 392.27 195.35 392.56 196.79 392.85 196.38 420.72 156.5 421.01 156.08 421.3 157.07 432.04 193.82 432.33 194.81 432.62 194.91 442.2 198.24 442.49 198.34 442.78 201.77 443.07 205.2 443.36 208.63 443.65 207.26 473.55 66.27 473.84 64.9 474.13 66.2 495.91 163.73 496.2 163.73 496.49 162.76 522.32 76.53 522.61 75.56 522.9 108.89 523.48 175.54 523.77 208.87 524.06 208.69 525.52 207.78 525.81 207.6 526.1 207.62 527.55 207.74 527.84 207.77 528.13 207.15 548.74 163.43 549.03 162.81 549.32 174.33 549.9 197.37 550.19 208.89 550.48 207.58 582.42 63.65 582.71 62.34 583 83.05 584.45 186.61 584.74 207.32 585.03 206.82 599.54 181.94 599.83 181.44 600.12 181.35 617.83 175.68 618.12 175.59 618.41 174.99 649.47 111.11 649.77 110.51 650.06 111.25 669.8 161.46 670.09 162.2 670.38 161.91 698.25 134.6 698.54 134.31 698.83 134.03 729.6 104.19 729.89 103.91 730.18 108.56 735.69 196.87 735.98 201.51 736.28 210.85 735.98 210.85 735.69 210.85 730.18 210.85 729.89 210.85 729.6 210.85 698.83 210.85 698.54 210.85 698.25 210.85 670.38 210.85 670.09 210.85 669.8 210.85 650.06 210.85 649.77 210.85 649.47 210.85 618.41 210.85 618.12 210.85 617.83 210.85 600.12 210.85 599.83 210.85 599.54 210.85 585.03 210.85 584.74 210.85 584.45 210.85 583 210.85 582.71 210.85 582.42 210.85 550.48 210.85 550.19 210.85 549.9 210.85 549.32 210.85 549.03 210.85 548.74 210.85 528.13 210.85 527.84 210.85 527.55 210.85 526.1 210.85 525.81 210.85 525.52 210.85 524.06 210.85 523.77 210.85 523.48 210.85 522.9 210.85 522.61 210.85 522.32 210.85 496.49 210.85 496.2 210.85 495.91 210.85 474.13 210.85 473.84 210.85 473.55 210.85 443.65 210.85 443.36 210.85 443.07 210.85 442.78 210.85 442.49 210.85 442.2 210.85 432.62 210.85 432.33 210.85 432.04 210.85 421.3 210.85 421.01 210.85 420.72 210.85 392.85 210.85 392.56 210.85 392.27 210.85 383.85 210.85 383.56 210.85 383.27 210.85 353.37 210.85 353.08 210.85 352.79 210.85 348.14 210.85 347.85 210.85 347.56 210.85 320.85 210.85 320.56 210.85 320.27 210.85 313.6 210.85 313.31 210.85 313.01 210.85 276.15 210.85 275.86 210.85 275.57 210.85 262.79 210.85 262.5 210.85 262.21 210.85 260.76 210.85 260.47 210.85 260.18 210.85 247.7 210.85 247.41 210.85 247.12 210.85 213.15 210.85 212.86 210.85 212.57 210.85 196.89 210.85 196.6 210.85 196.31 210.85 172.51 210.85 172.22 210.85 171.93 210.85 154.22 210.85 153.93 210.85 153.64 210.85 140.87 210.85 140.58 210.85 140.28 210.85 115.61 210.85 115.32 210.85 115.03 210.85 112.42 210.85 112.13 210.85 111.84 210.85 95.29 210.85 95 210.85 94.71 210.85 95 161.82"/>
  <polyline class="st0" points="95 161.82 95.29 162.14 111.84 180.13 112.13 180.45 112.42 182.7 115.03 202.96 115.32 205.21 115.61 204.54 140.28 147.94 140.58 147.27 140.87 148.21 153.64 189.62 153.93 190.56 154.22 190.42 171.93 181.64 172.22 181.49 172.51 181.28 196.31 163.66 196.6 163.45 196.89 163.82 212.57 183.82 212.86 184.19 213.15 183.91 247.12 151.31 247.41 151.03 247.7 151.95 260.18 191.22 260.47 192.14 260.76 194.33 262.21 205.31 262.5 207.51 262.79 207.19 275.57 193.33 275.86 193.01 276.15 192.03 313.01 66.62 313.31 65.63 313.6 70.92 320.27 192.75 320.56 198.04 320.85 197.49 347.56 146.09 347.85 145.53 348.14 148.77 352.79 200.51 353.08 203.75 353.37 203.26 383.27 152.55 383.56 152.06 383.85 153.5 392.27 195.35 392.56 196.79 392.85 196.38 420.72 156.5 421.01 156.08 421.3 157.07 432.04 193.82 432.33 194.81 432.62 194.91 442.2 198.24 442.49 198.34 442.78 201.77 443.07 205.2 443.36 208.63 443.65 207.26 473.55 66.27 473.84 64.9 474.13 66.2 495.91 163.73 496.2 163.73 496.49 162.76 522.32 76.53 522.61 75.56 522.9 108.89 523.48 175.54 523.77 208.87 524.06 208.69 525.52 207.78 525.81 207.6 526.1 207.62 527.55 207.74 527.84 207.77 528.13 207.15 548.74 163.43 549.03 162.81 549.32 174.33 549.9 197.37 550.19 208.89 550.48 207.58 582.42 63.65 582.71 62.34 583 83.05 584.45 186.61 584.74 207.32 585.03 206.82 599.54 181.94 599.83 181.44 600.12 181.35 617.83 175.68 618.12 175.59 618.41 174.99 649.47 111.11 649.77 110.51 650.06 111.25 669.8 161.46 670.09 162.2 670.38 161.91 698.25 134.6 698.54 134.31 698.83 134.03 729.6 104.19 729.89 103.91 730.18 108.56 735.69 196.87 735.98 201.51"/>
  <polygon class="st5" points="95 292.57 95.29 292.05 111.84 262.43 112.13 261.91 112.42 258.11 115.03 224 115.32 220.2 115.61 221.22 140.28 307.45 140.58 308.47 140.87 307.03 153.64 243.71 153.93 242.27 154.22 242.44 171.93 252.76 172.22 252.93 172.51 253.26 196.31 280.65 196.6 280.98 196.89 280.4 212.57 249.21 212.86 248.63 213.15 248.96 247.12 287.94 247.41 288.27 247.7 287.06 260.18 235.06 260.47 233.86 260.76 231.16 262.21 217.67 262.5 214.97 262.79 215.37 275.57 232.9 275.86 233.29 276.15 234.64 313.01 405.86 313.31 407.21 313.6 400.07 320.27 235.94 320.56 228.81 320.85 229.64 347.56 306.51 347.85 307.35 348.14 302.56 352.79 225.93 353.08 221.14 353.37 221.81 383.27 290.78 383.56 291.45 383.85 289.5 392.27 233 392.56 231.05 392.85 231.66 420.72 289.91 421.01 290.52 421.3 289.09 432.04 236.22 432.33 234.79 432.62 234.69 442.2 231.52 442.49 231.42 442.78 225.81 443.07 220.2 443.36 214.59 443.65 216.94 473.55 458.53 473.84 460.88 474.13 458.82 495.91 304.73 496.2 304.73 496.49 306.47 522.32 461.2 522.61 462.93 522.9 400.85 523.48 276.68 523.77 214.59 524.06 214.94 525.52 216.68 525.81 217.03 526.1 216.97 527.55 216.7 527.84 216.65 528.13 217.81 548.74 300.02 549.03 301.18 549.32 279.53 549.9 236.24 550.19 214.59 550.48 217.24 582.42 507.79 582.71 510.43 583 468.68 584.45 259.9 584.74 218.15 585.03 219.31 599.54 277.2 599.83 278.36 600.12 278.46 617.83 284.44 618.12 284.53 618.41 285.79 649.47 420.53 649.77 421.79 650.06 420.25 669.8 315.62 670.09 314.08 670.38 314.57 698.25 361.83 698.54 362.33 698.83 363.12 729.6 447.37 729.89 448.16 730.18 437.86 735.69 242.1 735.98 231.8 736.28 210.85 735.98 210.85 735.69 210.85 730.18 210.85 729.89 210.85 729.6 210.85 698.83 210.85 698.54 210.85 698.25 210.85 670.38 210.85 670.09 210.85 669.8 210.85 650.06 210.85 649.77 210.85 649.47 210.85 618.41 210.85 618.12 210.85 617.83 210.85 600.12 210.85 599.83 210.85 599.54 210.85 585.03 210.85 584.74 210.85 584.45 210.85 583 210.85 582.71 210.85 582.42 210.85 550.48 210.85 550.19 210.85 549.9 210.85 549.32 210.85 549.03 210.85 548.74 210.85 528.13 210.85 527.84 210.85 527.55 210.85 526.1 210.85 525.81 210.85 525.52 210.85 524.06 210.85 523.77 210.85 523.48 210.85 522.9 210.85 522.61 210.85 522.32 210.85 496.49 210.85 496.2 210.85 495.91 210.85 474.13 210.85 473.84 210.85 473.55 210.85 443.65 210.85 443.36 210.85 443.07 210.85 442.78 210.85 442.49 210.85 442.2 210.85 432.62 210.85 432.33 210.85 432.04 210.85 421.3 210.85 421.01 210.85 420.72 210.85 392.85 210.85 392.56 210.85 392.27 210.85 383.85 210.85 383.56 210.85 383.27 210.85 353.37 210.85 353.08 210.85 352.79 210.85 348.14 210.85 347.85 210.85 347.56 210.85 320.85 210.85 320.56 210.85 320.27 210.85 313.6 210.85 313.31 210.85 313.01 210.85 276.15 210.85 275.86 210.85 275.57 210.85 262.79 210.85 262.5 210.85 262.21 210.85 260.76 210.85 260.47 210.85 260.18 210.85 247.7 210.85 247.41 210.85 247.12 210.85 213.15 210.85 212.86 210.85 212.57 210.85 196.89 210.85 196.6 210.85 196.31 210.85 172.51 210.85 172.22 210.85 171.93 210.85 154.22 210.85 153.93 210.85 153.64 210.85 140.87 210.85 140.58 210.85 140.28 210.85 115.61 210.85 115.32 210.85 115.03 210.85 112.42 210.85 112.13 210.85 111.84 210.85 95.29 210.85 95 210.85 94.71 210.85 95 292.57"/>
  <polyline class="st0" points="95 292.57 95.29 292.05 111.84 262.43 112.13 261.91 112.42 258.11 115.03 224 115.32 220.2 115.61 221.22 140.28 307.45 140.58 308.47 140.87 307.03 153.64 243.71 153.93 242.27 154.22 242.44 171.93 252.76 172.22 252.93 172.51 253.26 196.31 280.65 196.6 280.98 196.89 280.4 212.57 249.21 212.86 248.63 213.15 248.96 247.12 287.94 247.41 288.27 247.7 287.06 260.18 235.06 260.47 233.86 260.76 231.16 262.21 217.67 262.5 214.97 262.79 215.37 275.57 232.9 275.86 233.29 276.15 234.64 313.01 405.86 313.31 407.21 313.6 400.07 320.27 235.94 320.56 228.81 320.85 229.64 347.56 306.51 347.85 307.35 348.14 302.56 352.79 225.93 353.08 221.14 353.37 221.81 383.27 290.78 383.56 291.45 383.85 289.5 392.27 233 392.56 231.05 392.85 231.66 420.72 289.91 421.01 290.52 421.3 289.09 432.04 236.22 432.33 234.79 432.62 234.69 442.2 231.52 442.49 231.42 442.78 225.81 443.07 220.2 443.36 214.59 443.65 216.94 473.55 458.53 473.84 460.88 474.13 458.82 495.91 304.73 496.2 304.73 496.49 306.47 522.32 461.2 522.61 462.93 522.9 400.85 523.48 276.68 523.77 214.59 524.06 214.94 525.52 216.68 525.81 217.03 526.1 216.97 527.55 216.7 527.84 216.65 528.13 217.81 548.74 300.02 549.03 301.18 549.32 279.53 549.9 236.24 550.19 214.59 550.48 217.24 582.42 507.79 582.71 510.43 583 468.68 584.45 259.9 584.74 218.15 585.03 219.31 599.54 277.2 599.83 278.36 600.12 278.46 617.83 284.44 618.12 284.53 618.41 285.79 649.47 420.53 649.77 421.79 650.06 420.25 669.8 315.62 670.09 314.08 670.38 314.57 698.25 361.83 698.54 362.33 698.83 363.12 729.6 447.37 729.89 448.16 730.18 437.86 735.69 242.1 735.98 231.8"/>
  <line class="st1" x1="62.63" y1="210.85" x2="768.35" y2="210.85"/>
  <rect class="st0" width="864" height="576"/>
  <text/>
  <text/>
  <text class="st8" transform="translate(190.14 552.13)"><tspan x="0" y="0">2020</tspan></text>
  <text class="st8" transform="translate(403.73 552.13)"><tspan x="0" y="0">2022</tspan></text>
  <text class="st8" transform="translate(611.44 552.13)"><tspan x="0" y="0">2024</tspan></text>
  <g>
    <text class="st9" transform="translate(777.25 214.01)"><tspan x="0" y="0">1 million</tspan></text>
    <text class="st9" transform="translate(777.25 46.45)"><tspan class="st10" x="0" y="0">860.9</tspan><tspan x="44.29" y="0">0 </tspan><tspan class="st11" x="0" y="14.4">millio</tspan><tspan x="44.29" y="14.4">n</tspan></text>
    <text class="st9" transform="translate(771.97 126.95)"><tspan class="st10" x="0" y="0">430.4</tspan><tspan x="44.29" y="0">5 </tspan><tspan class="st11" x="0" y="14.4">millio</tspan><tspan x="44.29" y="14.4">n</tspan></text>
    <text class="st9" transform="translate(771.97 287.94)"><tspan class="st10" x="0" y="0">430.4</tspan><tspan x="44.29" y="0">5 </tspan><tspan class="st11" x="0" y="14.4">millio</tspan><tspan x="44.29" y="14.4">n</tspan></text>
    <text class="st9" transform="translate(771.97 368.44)"><tspan class="st10" x="0" y="0">860.9</tspan><tspan x="44.29" y="0">0 </tspan><tspan class="st11" x="0" y="14.4">millio</tspan><tspan x="44.29" y="14.4">n</tspan></text>
    <text class="st9" transform="translate(771.97 448.93)"><tspan class="st12" x="0" y="0">1291.3</tspan><tspan x="44.29" y="0">6 </tspan><tspan class="st11" x="0" y="14.4">millio</tspan><tspan x="44.29" y="14.4">n</tspan></text>
  </g>
  <text class="st7" transform="translate(57.92 127.9)"><tspan x="0" y="0">Real Cash Values</tspan></text>
  <text class="st7" transform="translate(57.92 369.85)"><tspan x="0" y="0">Advertised jackpot</tspan></text>
  <text class="st7" transform="translate(256.94 450.29)"><tspan x="0" y="0">On August 8th, 2023, the advertised </tspan><tspan x="0" y="16.8">jackpot hit $1,602 million, more than </tspan><tspan x="0" y="33.6">double its cash value.</tspan></text>
  <g>
    <path class="st3" d="M403.73,480.99c0,15.86,72.11,28.77,162.62,29.42"/>
    <polygon class="st13" points="573.41 510.43 563.39 514.32 565.82 510.3 563.53 506.19 573.41 510.43"/>
  </g>
</svg>