<?xml version="1.0" encoding="UTF-8"?>
<svg id="Layer_1" xmlns="http://www.w3.org/2000/svg" xmlns:xlink="http://www.w3.org/1999/xlink" version="1.1" viewBox="0 0 720 504">
  <!-- Generator: Adobe Illustrator 29.4.0, SVG Export Plug-In . SVG Version: 2.1.0 Build 152)  -->
  <defs>
    <style>
      .st0, .st1 {
        fill: none;
      }

      .st2 {
        font-size: 11.38px;
      }

      .st2, .st3 {
        font-family: ArialMT, Arial;
      }

      .st2, .st3, .st4, .st5, .st6 {
        isolation: isolate;
      }

      .st7 {
        fill: #e51f1c;
      }

      .st3, .st4 {
        font-size: 10px;
      }

      .st3, .st6 {
        fill: #4d4d4d;
      }

      .st4, .st5 {
        font-family: Times-Roman, Times;
      }

      .st8 {
        letter-spacing: .36em;
      }

      .st9 {
        fill: #770001;
      }

      .st10 {
        clip-path: url(#clippath-1);
      }

      .st11 {
        fill: #ff504d;
      }

      .st12 {
        fill: #600;
      }

      .st13 {
        fill: #f66;
      }

      .st1 {
        stroke: #ebebeb;
        stroke-linejoin: round;
        stroke-width: 1.07px;
      }

      .st5 {
        font-size: 11px;
      }

      .st6 {
        font-family: TimesNewRomanPSMT, 'Times New Roman';
        font-size: 12px;
      }
    </style>
    <clipPath id="clippath-1">
      <rect class="st0" width="720" height="504"/>
    </clipPath>
  </defs>
  <rect class="st0" width="720" height="504"/>
  <rect class="st0" x="76.47" y="24.13" width="638.05" height="433.26"/>
  <line class="st1" x1="105.47" y1="457.39" x2="105.47" y2="24.13"/>
  <line class="st1" x1="254.2" y1="457.39" x2="254.2" y2="24.13"/>
  <line class="st1" x1="402.93" y1="457.39" x2="402.93" y2="24.13"/>
  <line class="st1" x1="551.66" y1="457.39" x2="551.66" y2="24.13"/>
  <line class="st1" x1="700.39" y1="457.39" x2="700.39" y2="24.13"/>
  <rect class="st12" x="105.47" y="44.96" width="580.05" height="58.32"/>
  <rect class="st9" x="105.47" y="128.28" width="550.3" height="58.32"/>
  <rect class="st7" x="105.47" y="211.6" width="356.95" height="58.32"/>
  <rect class="st11" x="105.47" y="294.92" width="267.71" height="58.32"/>
  <rect class="st13" x="105.47" y="378.24" width="223.09" height="58.32"/>
  <text class="st2" transform="translate(688.05 78.2)"><tspan x="0" y="0">39</tspan></text>
  <text/>
  <text/>
  <text class="st2" transform="translate(331.1 411.48)"><tspan x="0" y="0">15</tspan></text>
  <g class="st10">
    <text class="st6" transform="translate(25.56 411.4)"><tspan x="0" y="0">Michigan</tspan></text>
    <text class="st6" transform="translate(47.54 328.08)"><tspan x="0" y="0">Ohio</tspan></text>
    <text class="st6" transform="translate(15.91 244.76)"><tspan x="0" y="0">New Jersey</tspan></text>
    <text class="st6" transform="translate(22.9 161.44)"><tspan x="0" y="0">California</tspan></text>
    <text class="st6" transform="translate(22.34 78.12)"><tspan x="0" y="0">New York</tspan></text>
    <text class="st3" transform="translate(102.69 469.5)"><tspan x="0" y="0">0</tspan></text>
    <text class="st3" transform="translate(248.64 469.5)"><tspan x="0" y="0">10</tspan></text>
    <text class="st3" transform="translate(397.37 469.5)"><tspan x="0" y="0">20</tspan></text>
    <text class="st3" transform="translate(546.1 469.5)"><tspan x="0" y="0">30</tspan></text>
    <text class="st3" transform="translate(694.83 469.5)"><tspan x="0" y="0">40</tspan></text>
    <text class="st5" transform="translate(356.07 482.35)"><tspan x="0" y="0">Number of Wins</tspan></text>
    <text class="st4" transform="translate(476.98 495.94)"><tspan x="0" y="0">By:</tspan><tspan class="st8" x="14.45" y="0"> </tspan><tspan x="20.58" y="0">Xinlin</tspan><tspan class="st8" x="46.14" y="0"> </tspan><tspan x="52.27" y="0">Jiang</tspan><tspan class="st8" x="73.37" y="0"> </tspan><tspan x="79.5" y="0">|</tspan><tspan class="st8" x="81.51" y="0"> </tspan><tspan x="87.64" y="0">Data</tspan><tspan class="st8" x="106.51" y="0"> </tspan><tspan x="112.64" y="0">source:</tspan><tspan class="st8" x="141.52" y="0"> </tspan><tspan x="147.65" y="0">https://www.megamil</tspan><tspan x="234.59" y="0">-</tspan></text>
  </g>
  <text/>
</svg>